<?xml version="1.0" encoding="UTF-8" standalone="no"?>
<!DOCTYPE svg PUBLIC "-//W3C//DTD SVG 1.1//EN" "http://www.w3.org/Graphics/SVG/1.1/DTD/svg11.dtd">
<svg version="1.1" xmlns="http://www.w3.org/2000/svg" xmlns:xlink="http://www.w3.org/1999/xlink" preserveAspectRatio="xMidYMid meet" viewBox="-1 -1 282.00564440263406 128.92944496707435" width="278.01" height="124.93"><defs><path d="M39.89 50.27L23.78 23.78L39.89 2.71L25.74 2.71L15.5 17.61L11.44 23.63L11.44 2.71L0 2.71L0 50.27L11.44 50.27L11.44 37.78L16.11 32.51L26.34 50.27L39.89 50.27Z" id="eji8IW2DZ"></path><path d="M60.81 43.35C59.6 44.55 57.95 45.31 55.84 45.76C54.19 46.06 52.83 45.91 51.63 45.16C50.42 44.4 49.67 43.35 49.37 41.69C48.32 36.43 50.72 33.26 56.59 32.06C56.92 31.99 58.52 31.64 61.41 31.01L63.22 39.74C62.41 41.34 61.61 42.55 60.81 43.35ZM73.9 49.67C73 48.02 72.4 45.46 72.4 42.14C72.4 40.58 72.4 28.06 72.4 26.49C72.4 22.58 71.04 19.57 68.33 17.46C65.78 15.2 62.16 14.15 57.65 14.15C53.13 14.15 49.37 15.2 46.51 17.31C43.65 19.42 42.14 22.28 42.14 25.59C43.24 25.59 52.03 25.59 53.13 25.59C53.13 23.03 54.49 21.67 57.05 21.67C59.91 21.67 61.26 23.33 61.26 26.64C61.26 26.76 61.26 27.36 61.26 28.45C59.27 28.45 58.17 28.45 57.95 28.45C52.53 28.45 48.47 29.5 45.61 31.46C42.75 33.41 41.39 36.27 41.39 40.19C41.39 43.2 42.6 45.76 44.85 47.86C47.26 49.82 49.97 50.87 53.43 50.87C57.05 50.87 59.91 49.67 62.01 47.11C62.31 48.47 62.62 49.52 63.07 50.27C63.79 50.27 67.4 50.27 73.9 50.27C73.9 49.91 73.9 49.71 73.9 49.67Z" id="aCfS3C9bP"></path><path d="M79.47 0L79.47 50.27L90.46 50.27C90.46 35.01 90.46 26.53 90.46 24.84C91.36 23.33 93.02 22.73 95.28 22.73C97.08 22.73 98.44 23.18 99.19 24.08C99.94 24.99 100.4 26.34 100.4 28.3C100.4 29.77 100.4 37.15 100.4 50.42L111.38 50.42C111.38 36.97 111.38 29.49 111.38 28C111.38 23.48 110.33 20.02 108.37 17.76C106.42 15.5 103.41 14.3 99.49 14.3C95.88 14.3 92.87 15.8 90.46 18.81C90.46 17.56 90.46 11.29 90.46 0L79.47 0Z" id="b4NqEeYmX3"></path><path d="M118.76 51.48C118.76 54.49 117.25 55.99 114.24 55.99C113.49 55.99 112.44 55.84 111.08 55.69C111.08 56.52 111.08 63.14 111.08 63.97C112.74 64.27 114.39 64.57 116.35 64.57C120.56 64.57 123.88 63.37 126.28 61.11C128.69 58.85 129.9 55.54 129.9 51.48C129.9 49.04 129.9 36.85 129.9 14.9L118.76 14.9C118.76 36.85 118.76 49.04 118.76 51.48Z" id="b5SNFMTlew"></path><path d="M168.88 50.27L168.88 14.9L157.74 14.9C157.74 29.8 157.74 38.08 157.74 39.74C156.69 41.54 154.88 42.45 152.32 42.45C149.31 42.45 147.96 40.94 147.96 37.93C147.96 36.4 147.96 28.72 147.96 14.9L136.97 14.9C136.97 28.63 136.97 36.25 136.97 37.78C136.97 41.99 138.02 45.31 139.98 47.56C141.94 49.82 144.95 51.03 148.86 51.03C152.78 51.03 155.94 49.52 158.34 46.51C158.35 46.76 158.4 48.02 158.49 50.27L168.88 50.27Z" id="b2IYmIgJfF"></path><path d="M194.62 14.15C191.31 14.15 188.75 15.95 186.79 19.42C186.77 19.12 186.67 17.61 186.49 14.9L176.11 14.9L176.11 50.27L187.09 50.27C187.09 36.82 187.09 29.34 187.09 27.85C188.15 25.74 190.25 24.53 193.72 24.53C193.96 24.55 195.16 24.65 197.33 24.84L197.63 14.6C196.32 14.3 195.32 14.15 194.62 14.15Z" id="a5lamiwA8d"></path><path d="M213.43 14.9C213.43 14.9 213.43 14.9 213.43 14.9C213.43 36.12 213.43 47.91 213.43 50.27C213.43 50.27 213.43 50.27 213.43 50.27C206.84 50.27 203.18 50.27 202.45 50.27C202.45 50.27 202.45 50.27 202.45 50.27C202.45 29.05 202.45 17.26 202.45 14.9C202.45 14.9 202.45 14.9 202.45 14.9C209.04 14.9 212.7 14.9 213.43 14.9Z" id="a6Rj20jky"></path><path d="M201.84 7.98C202.9 9.18 204.55 10.24 206.66 10.84C208.77 11.59 210.57 11.74 212.23 11.29C213.89 10.84 214.79 10.08 215.24 8.73C215.69 7.38 215.39 6.17 214.34 4.97C213.28 3.76 211.63 2.71 209.52 2.11C207.41 1.35 205.61 1.2 203.95 1.66C202.3 2.11 201.39 2.86 200.94 4.21C200.34 5.42 200.79 6.77 201.84 7.98" id="bl0NrAqaY"></path><path d="M116.95 7.68C118.16 9.03 119.96 10.24 122.37 10.99C124.78 11.74 126.89 11.89 128.69 11.44C130.5 10.99 131.7 10.08 132.15 8.58C132.61 7.07 132.3 5.72 131.1 4.21C129.9 2.86 128.09 1.66 125.68 0.9C123.27 0.15 121.17 0 119.36 0.45C117.55 0.9 116.35 1.81 115.9 3.31C115.3 4.67 115.75 6.17 116.95 7.68" id="a1lfFls8gH"></path><path d="M222.62 14.9L218.1 14.9L218.1 22.58L222.62 22.58C222.62 33.14 222.62 39.01 222.62 40.19C222.62 43.8 223.52 46.51 225.32 48.32C227.13 50.12 229.99 51.03 233.75 51.03C235.86 51.03 237.97 50.72 239.92 50.12C239.92 49.34 239.92 43.08 239.92 42.3C239.17 42.45 238.27 42.45 237.22 42.45C235.86 42.45 234.81 42.14 234.36 41.69C233.9 41.24 233.6 40.19 233.6 38.98C233.6 37.9 233.6 32.48 233.6 22.73L239.47 22.73L239.47 14.9L233.6 14.9L233.6 6.17L222.62 6.17L222.62 14.9Z" id="a1DqNKHZRD"></path><path d="M253.17 31.16C252.42 25.29 254.07 21.67 258.44 20.47C260.7 19.87 262.8 19.87 264.31 20.92C265.96 21.83 267.02 23.48 267.62 25.89C267.64 25.96 267.74 26.31 267.92 26.94C259.07 29.47 254.15 30.88 253.17 31.16ZM276.2 31.91C276.2 26.34 274.69 22.13 271.83 18.97C268.97 15.8 265.06 14.3 260.09 14.3C256.63 14.3 253.47 15.05 250.91 16.56C248.35 18.06 246.4 20.17 245.04 23.03C243.69 25.74 243.09 29.05 243.09 32.66C243.09 32.75 243.09 33.48 243.09 33.57C243.09 38.83 244.74 43.05 248.05 46.21C251.36 49.52 255.88 51.03 261.3 51.03C264.16 51.03 266.87 50.42 269.43 49.37C271.98 48.32 273.94 46.66 275.3 44.85C274.8 44.25 270.83 39.44 270.33 38.83C268.37 41.24 265.66 42.45 262.2 42.45C260.09 42.45 258.29 41.84 257.08 40.79C255.73 39.59 254.83 38.08 254.52 36.12C255.97 36.12 263.19 36.12 276.2 36.12C276.2 33.6 276.2 32.19 276.2 31.91Z" id="aip8hOyfU"></path><path d="M106.11 71.04L106.11 79.92L118.91 79.92L118.91 124.18L129.75 124.18L129.75 79.92L142.84 79.92L142.84 71.04L106.11 71.04Z" id="bDSIEdpYD"></path><path d="M172.19 113.64C171.29 116.05 169.48 117.7 166.77 118.31C163.91 119.06 161.51 118.46 159.7 116.5C157.74 114.69 156.24 111.38 155.18 106.87C154.96 105.93 153.15 98.47 152.93 97.54C151.87 93.02 151.72 89.41 152.62 86.85C153.38 84.29 155.18 82.63 158.04 82.03C160.9 81.28 163.31 82.03 165.12 83.99C167.07 85.95 168.58 89.41 169.63 94.07C169.86 94.99 171.67 102.34 171.89 103.25C172.94 107.62 173.1 111.08 172.19 113.64M179.72 102.35C179.72 96.93 179.72 93.92 179.72 93.32C179.72 86.1 177.91 80.38 174.6 76.31C171.14 72.25 166.47 70.29 160.6 70.29C154.58 70.29 149.92 72.4 146.45 76.46C143.14 80.53 141.34 86.25 141.34 93.62C141.34 94.52 141.34 101.75 141.34 102.65C141.34 109.73 143.14 115.15 146.45 119.06C149.92 122.97 154.58 124.93 160.45 124.93C166.47 124.93 171.14 122.97 174.45 119.06C178.06 115 179.72 109.43 179.72 102.35" id="a14UKWxBxt"></path><path d="M162.56 59.91C161.96 60.51 161.51 60.66 160.75 60.66C160.15 60.66 159.7 60.51 159.25 60.21C158.8 59.91 157.89 59.45 156.69 58.55C155.48 57.8 154.73 57.2 154.28 57.05C153.83 56.9 153.23 56.75 152.78 56.59C150.82 56.44 149.01 57.2 147.36 58.85C145.85 60.66 144.8 62.77 144.5 65.48C145.07 65.57 149.64 66.29 150.22 66.38C150.37 65.32 150.67 64.42 151.12 63.82C151.57 63.22 152.17 63.07 152.78 63.07C153.38 63.07 153.83 63.22 154.28 63.37C154.73 63.52 155.48 64.12 156.39 64.87C157.44 65.63 158.19 66.23 158.8 66.53C159.4 66.83 160 66.98 160.75 67.13C162.86 67.28 164.67 66.53 166.17 64.87C167.68 63.22 168.73 60.96 168.88 58.25C168.52 58.19 166.71 57.89 163.46 57.35C163.16 58.65 162.86 59.5 162.56 59.91Z" id="e5OjTHG9fr"></path><path d="M205.31 93.17C204.4 95.28 202.45 96.78 199.74 97.38C199.21 97.51 196.61 98.11 191.91 99.19L187.24 78.72C192.12 77.64 194.83 77.03 195.37 76.91C200.79 75.71 204.25 78.57 205.91 85.34C206.36 88.35 206.21 90.91 205.31 93.17M217.2 123.57C211.6 110.57 208.49 103.35 207.86 101.9C212.98 99.04 215.54 94.07 215.54 87.15C215.54 82.03 214.04 78.12 211.18 75.26C208.32 72.4 204.1 71.04 198.68 71.04C197.54 71.04 191.82 71.04 181.52 71.04L181.52 124.18L192.21 124.18L192.21 104.76L197.48 104.76L205.46 124.18L217.05 124.18L217.05 123.57L217.2 123.57Z" id="dnrnOXBi"></path><path d="M229.39 116.05C226.23 116.05 224.72 113.49 224.72 108.52C223.65 108.52 215.1 108.52 214.04 108.52C214.04 113.64 215.39 117.7 218.1 120.56C220.81 123.42 224.57 124.93 229.39 124.93C233.9 124.93 237.67 123.42 240.53 120.26C243.39 117.1 244.89 113.04 244.89 107.92C244.89 105.47 244.89 93.23 244.89 71.19L234.05 71.19L234.05 107.32C233.05 113.14 231.5 116.05 229.39 116.05Z" id="gEynbylio"></path><path d="M258.29 92.57L258.29 79.92L278.01 79.92L278.01 71.04L247.45 71.04L247.45 124.18L278.01 124.18L278.01 115.3L258.29 115.3L258.29 101.15L275 101.15L275 92.57L258.29 92.57Z" id="g2rwEfkDu"></path></defs><g><g><use xlink:href="#eji8IW2DZ" opacity="1" fill="#ffffff" fill-opacity="1"></use><g><use xlink:href="#eji8IW2DZ" opacity="1" fill-opacity="0" stroke="#000000" stroke-width="1" stroke-opacity="0"></use></g></g><g><use xlink:href="#aCfS3C9bP" opacity="1" fill="#ffffff" fill-opacity="1"></use><g><use xlink:href="#aCfS3C9bP" opacity="1" fill-opacity="0" stroke="#000000" stroke-width="1" stroke-opacity="0"></use></g></g><g><use xlink:href="#b4NqEeYmX3" opacity="1" fill="#ffffff" fill-opacity="1"></use><g><use xlink:href="#b4NqEeYmX3" opacity="1" fill-opacity="0" stroke="#000000" stroke-width="1" stroke-opacity="0"></use></g></g><g><use xlink:href="#b5SNFMTlew" opacity="1" fill="#ffffff" fill-opacity="1"></use><g><use xlink:href="#b5SNFMTlew" opacity="1" fill-opacity="0" stroke="#000000" stroke-width="1" stroke-opacity="0"></use></g></g><g><use xlink:href="#b2IYmIgJfF" opacity="1" fill="#ffffff" fill-opacity="1"></use><g><use xlink:href="#b2IYmIgJfF" opacity="1" fill-opacity="0" stroke="#000000" stroke-width="1" stroke-opacity="0"></use></g></g><g><use xlink:href="#a5lamiwA8d" opacity="1" fill="#ffffff" fill-opacity="1"></use><g><use xlink:href="#a5lamiwA8d" opacity="1" fill-opacity="0" stroke="#000000" stroke-width="1" stroke-opacity="0"></use></g></g><g><use xlink:href="#a6Rj20jky" opacity="1" fill="#ffffff" fill-opacity="1"></use><g><use xlink:href="#a6Rj20jky" opacity="1" fill-opacity="0" stroke="#000000" stroke-width="1" stroke-opacity="0"></use></g></g><g><use xlink:href="#bl0NrAqaY" opacity="1" fill="#ffffff" fill-opacity="1"></use><g><use xlink:href="#bl0NrAqaY" opacity="1" fill-opacity="0" stroke="#000000" stroke-width="1" stroke-opacity="0"></use></g></g><g><use xlink:href="#a1lfFls8gH" opacity="1" fill="#ffffff" fill-opacity="1"></use><g><use xlink:href="#a1lfFls8gH" opacity="1" fill-opacity="0" stroke="#000000" stroke-width="1" stroke-opacity="0"></use></g></g><g><use xlink:href="#a1DqNKHZRD" opacity="1" fill="#ffffff" fill-opacity="1"></use><g><use xlink:href="#a1DqNKHZRD" opacity="1" fill-opacity="0" stroke="#000000" stroke-width="1" stroke-opacity="0"></use></g></g><g><use xlink:href="#aip8hOyfU" opacity="1" fill="#ffffff" fill-opacity="1"></use><g><use xlink:href="#aip8hOyfU" opacity="1" fill-opacity="0" stroke="#000000" stroke-width="1" stroke-opacity="0"></use></g></g><g><use xlink:href="#bDSIEdpYD" opacity="1" fill="#ffffff" fill-opacity="1"></use><g><use xlink:href="#bDSIEdpYD" opacity="1" fill-opacity="0" stroke="#000000" stroke-width="1" stroke-opacity="0"></use></g></g><g><use xlink:href="#a14UKWxBxt" opacity="1" fill="#ffffff" fill-opacity="1"></use><g><use xlink:href="#a14UKWxBxt" opacity="1" fill-opacity="0" stroke="#000000" stroke-width="1" stroke-opacity="0"></use></g></g><g><use xlink:href="#e5OjTHG9fr" opacity="1" fill="#ffffff" fill-opacity="1"></use><g><use xlink:href="#e5OjTHG9fr" opacity="1" fill-opacity="0" stroke="#000000" stroke-width="1" stroke-opacity="0"></use></g></g><g><use xlink:href="#dnrnOXBi" opacity="1" fill="#ffffff" fill-opacity="1"></use><g><use xlink:href="#dnrnOXBi" opacity="1" fill-opacity="0" stroke="#000000" stroke-width="1" stroke-opacity="0"></use></g></g><g><use xlink:href="#gEynbylio" opacity="1" fill="#ffffff" fill-opacity="1"></use><g><use xlink:href="#gEynbylio" opacity="1" fill-opacity="0" stroke="#000000" stroke-width="1" stroke-opacity="0"></use></g></g><g><use xlink:href="#g2rwEfkDu" opacity="1" fill="#ffffff" fill-opacity="1"></use><g><use xlink:href="#g2rwEfkDu" opacity="1" fill-opacity="0" stroke="#000000" stroke-width="1" stroke-opacity="0"></use></g></g></g></svg>